<svg xmlns="http://www.w3.org/2000/svg" width="1400" height="800" viewBox="0 0 1400 800">
  <rect width="1400" height="800" fill="#111827"/>
  <rect x="90" y="80" width="1220" height="640" rx="28" fill="#1f2937" stroke="#34d399" stroke-width="3"/>
  <text x="700" y="145" text-anchor="middle" font-family="Segoe UI, Arial, sans-serif" font-size="36" fill="#f9fafb">Modelo estrela do projeto</text>
  <text x="700" y="182" text-anchor="middle" font-family="Segoe UI, Arial, sans-serif" font-size="20" fill="#cbd5e1">Fato central com múltiplas dimensões para análise analítica</text>

  <rect x="560" y="245" width="280" height="150" rx="20" fill="#10b981"/>
  <text x="700" y="305" text-anchor="middle" font-family="Segoe UI, Arial, sans-serif" font-size="28" fill="#ecfdf5">Fato Sales</text>
  <text x="700" y="342" text-anchor="middle" font-family="Segoe UI, Arial, sans-serif" font-size="18" fill="#d1fae5">Receita, margem, quantidade</text>

  <rect x="120" y="470" width="200" height="120" rx="16" fill="#2563eb"/>
  <text x="220" y="525" text-anchor="middle" font-family="Segoe UI, Arial, sans-serif" font-size="22" fill="#eff6ff">Dim Cliente</text>

  <rect x="360" y="470" width="200" height="120" rx="16" fill="#3b82f6"/>
  <text x="460" y="525" text-anchor="middle" font-family="Segoe UI, Arial, sans-serif" font-size="22" fill="#eff6ff">Dim Produto</text>

  <rect x="600" y="470" width="200" height="120" rx="16" fill="#60a5fa"/>
  <text x="700" y="525" text-anchor="middle" font-family="Segoe UI, Arial, sans-serif" font-size="22" fill="#eff6ff">Dim Tempo</text>

  <rect x="840" y="470" width="200" height="120" rx="16" fill="#93c5fd"/>
  <text x="940" y="525" text-anchor="middle" font-family="Segoe UI, Arial, sans-serif" font-size="22" fill="#eff6ff">Dim Canal</text>

  <rect x="1080" y="470" width="200" height="120" rx="16" fill="#bfdbfe"/>
  <text x="1180" y="525" text-anchor="middle" font-family="Segoe UI, Arial, sans-serif" font-size="22" fill="#1e3a8a">Dim Região</text>

  <path d="M700 395 L220 470" stroke="#34d399" stroke-width="5" stroke-linecap="round"/>
  <path d="M700 395 L460 470" stroke="#34d399" stroke-width="5" stroke-linecap="round"/>
  <path d="M700 395 L700 470" stroke="#34d399" stroke-width="5" stroke-linecap="round"/>
  <path d="M700 395 L940 470" stroke="#34d399" stroke-width="5" stroke-linecap="round"/>
  <path d="M700 395 L1180 470" stroke="#34d399" stroke-width="5" stroke-linecap="round"/>
</svg>